<svg width="385" height="280" viewBox="0 0 385 280" fill="none" xmlns="http://www.w3.org/2000/svg">
<path d="M317.686 15.8526C311.373 13.7064 304.877 12.2211 298.296 11.6532C291.715 11.0852 292.547 11.134 289.848 12.1713C287.15 13.2086 285.54 15.8924 285.388 18.9006C285.236 21.9089 285.871 25.7945 286.177 29.2168C286.483 32.6391 286.75 36.1501 287.017 39.6612C287.629 46.5057 288.113 53.3996 288.725 60.2441C289.337 67.0886 289.458 71.1718 292.06 75.9241C294.662 80.6764 299.163 83.2972 304.588 82.6132C310.013 81.9293 313.852 79.2738 317.779 81.747C321.706 84.2201 322.189 91.114 321.037 95.9081C317.904 108.101 309.38 118.235 302.432 128.428C298.816 133.727 295.556 139.183 292.973 145.043C290.39 150.903 288.533 157.296 286.804 163.639C283.504 175.969 281.225 188.645 275.88 200.286C270.535 211.928 273.677 205.042 271.425 206.276C269.173 207.51 267.933 207.176 266.157 206.605C261.722 205.286 258.382 201.481 255.746 197.774C253.111 194.067 248.778 187.915 243.209 185.779C237.639 183.642 232.773 184.996 228.012 187.563C223.251 190.131 219.261 194.098 215.209 197.72C211.157 201.343 205.016 206.801 199.829 211.301C194.643 215.802 188.999 219.889 189.879 226.852C190.76 233.814 195.177 237.352 199.12 240.999C207.604 248.874 219.15 253.434 230.547 254.216C241.507 255.018 252.648 252.505 262.449 247.706C273.485 242.284 282.544 234.083 290.866 225.132C308.996 205.552 323.078 182.809 333.534 158.362C338.963 145.804 343.499 132.851 347.816 119.908C352.134 106.965 356.865 95.2645 356.031 82.384C355.198 69.5035 354.22 70.0268 352.948 63.952C351.688 58.0942 350.249 52.1576 348.128 46.5568C344.115 35.5621 337.51 25.1213 327.517 18.4897C317.525 11.8582 317.553 13.2489 312.011 12.5027C306.469 11.7566 308.171 16.8547 311.294 17.2769C322.288 18.7297 331.403 26.141 337.327 35.2211C343.251 44.3012 346.476 56.115 348.746 67.1897C351.016 78.2644 351.328 79.2505 351.382 85.4246C351.464 91.293 350.02 97.2315 348.336 102.746C344.611 115.314 340.31 127.734 335.781 139.947C331.251 152.16 326.028 164.492 319.851 176.085C313.673 187.678 306.993 197.989 299.202 207.916C285.262 225.737 268.551 244.033 245.275 248.407C221.999 252.781 223.615 249.358 213.723 244.679C203.83 240 204.272 239.24 200.575 235.278C196.878 231.315 192.941 226.929 195.669 222.193C198.397 217.457 199.844 217.564 202.102 215.59C204.359 213.616 207.031 211.188 209.495 208.987C214.257 204.724 218.89 200.509 223.741 196.285C228.591 192.061 230.989 190.254 235.442 189.354C239.895 188.454 244.793 191.143 248.043 194.909C251.293 198.674 254.035 203.594 258.224 206.925C262.412 210.256 266.652 212.019 271.44 210.842C276.229 209.666 279.851 203.627 281.825 198.665C284.151 192.904 285.941 186.906 287.552 180.829C290.696 168.854 293.075 156.435 298.175 145.109C303.145 133.832 311.406 124.536 317.907 114.147C324.408 103.757 324.157 103.116 325.846 96.8619C327.362 91.4856 327.538 85.5184 324.322 80.7073C321.105 75.8962 320.396 76.5377 317.608 75.8391C314.82 75.1406 312.999 75.3982 310.664 75.8533C306.775 76.6843 302.031 78.7288 298.608 75.8411C295.184 72.9534 294.56 67.5884 294.182 63.604C293.542 57.0652 293.08 50.6053 292.569 44.0171C292.057 37.429 291.445 30.5845 290.973 23.9075C290.5 17.2306 290.728 20.8305 290.65 19.3116C290.573 17.7928 290.567 16.8361 291.674 16.2633C293.54 15.1772 296.406 15.6982 298.428 15.9534C304.484 16.5019 310.445 17.7508 316.092 19.71C321.74 21.6692 318.757 19.7182 319.305 18.4751C319.853 17.2321 319.339 15.7332 318.049 15.2705L317.686 15.8526Z" fill="black"/>
<path d="M297.144 14.7492C300.875 30.4981 301.4 46.742 301.221 62.8878C301.197 67.5431 300.994 72.1197 300.881 76.7356C300.768 81.3515 301.578 79.2699 302.986 79.4663C304.394 79.6627 305.746 78.7742 305.719 77.3835C306.144 60.922 306.608 44.3717 304.508 28.0695C303.878 23.4442 303.07 18.74 301.965 14.2235C300.861 9.70695 300.625 11.9361 299.279 12.0849C297.932 12.2337 296.859 13.4574 297.144 14.7492Z" fill="black"/>
<path d="M307.724 16.6571C306.844 24.2225 309.322 31.6774 310.403 39.1528C311.535 46.7565 312.012 54.3901 311.965 62.0043C311.917 69.6186 311.626 70.7629 311.144 75.0042C310.662 79.2456 315.624 78.8875 315.943 75.741C317.642 60.2649 316.636 44.8695 313.63 29.6528C310.625 14.4361 312.119 21.4576 312.523 17.3938C312.927 13.33 308.044 13.5106 307.724 16.6571Z" fill="black"/>
<path d="M202.525 234.971C203.733 231.261 206.483 228.656 209.322 226.09C212.161 223.524 215.542 220.454 218.537 217.533C224.065 212.016 229.452 206.332 236.046 202.027C242.64 197.723 243.098 198.137 247.065 197.128C251.032 196.12 248.926 195.085 248.435 194.021C247.944 192.956 246.514 192.325 245.307 192.642C229.053 196.824 218.88 211.427 206.792 221.9C203.193 224.979 199.566 228.364 198.056 233.001C196.546 237.637 197.971 235.615 199.312 236.205C200.653 236.796 202.066 236.253 202.525 234.971Z" fill="black"/>
<path d="M212.606 243.336C222.66 232.392 232.553 220.846 244.59 211.942C247.915 209.485 251.251 207.244 254.867 205.338C258.482 203.432 256.739 203.512 256.236 202.23C255.734 200.948 254.254 200.19 253.108 200.851C239.547 208.129 228.57 218.985 218.181 230.205C215.079 233.61 211.887 236.975 208.786 240.38C205.684 243.785 210.46 245.784 212.567 243.425L212.606 243.336Z" fill="black"/>
<path d="M190.816 233.202C187.748 235.561 184.043 237.428 180.143 238.042C176.243 238.656 173.992 238.193 171.149 236.41C165.145 232.597 162.466 224.629 166.703 218.65C167.597 217.347 168.76 216.163 170.202 215.314C171.643 214.465 172.85 214.148 173.939 214.098C173.722 214.108 174.425 214.206 174.029 214.138C173.632 214.069 174.208 214.216 174.386 214.295C174.654 214.413 175.012 214.571 175.28 214.689C176.045 215.132 176.604 215.803 177.034 216.523C177.894 217.962 178.021 219.609 177.931 221.266C177.398 228.772 170.446 234.615 163.702 236.839C156.958 239.062 146.941 238.782 143.106 231.259C139.27 223.736 141.114 223.913 143.048 220.735C144.982 217.558 144.11 219.295 144.781 218.742L145.373 218.367C145.334 218.456 143.697 218.052 143.747 218.181C143.798 218.309 144.116 218.555 144.216 218.811C145.166 220.29 145.176 222.204 144.153 223.556C141.873 226.792 136.855 227.762 133.202 228.06C129.548 228.358 125.721 227.838 122.196 226.39C118.543 224.992 114.706 222.558 112.528 219.265C110.351 215.972 110.078 211.505 113.124 208.711C116.17 205.918 114.437 207.912 114.694 207.813C115.22 207.832 114.951 207.714 114.694 207.813C114.298 207.744 114.169 207.794 114.694 207.813C115.091 207.882 114.694 207.813 114.516 207.734C114.248 207.616 114.873 207.892 114.605 207.774C115.767 208.286 116.616 209.508 116.554 210.859C116.485 214.647 111.926 216.03 108.792 215.391C100.541 213.769 95.5889 204.905 94.3682 197.262C93.1474 189.619 94.0289 193.189 94.0575 191.187C94.0862 189.185 88.3376 188.666 88.2476 190.323C88.1173 195.461 88.9087 200.688 91.3316 205.362C93.7546 210.035 97.9376 214.106 102.982 216.223C108.026 218.341 114.936 219.372 119.574 216.115C124.212 212.857 122.637 212.799 122.04 210.521C121.443 208.243 119.633 207.021 117.757 206.193C113.07 204.234 107.438 205.145 105.515 210.235C103.591 215.326 106.857 220.265 110.728 223.35C119.334 230.219 132.027 232.42 142.52 229.198C153.013 225.976 152.796 224.29 149.775 219.035C146.755 213.78 145.229 215.546 142.446 215.804C139.664 216.063 137.92 217.839 136.813 220.108C134.717 224.38 135.855 229.548 138.747 233.156C141.64 236.764 148.74 239.787 154.488 240.306C164.41 241.286 175.663 237.551 181.113 228.819C183.293 225.326 184.703 220.433 182.492 216.49C180.281 212.546 172.751 210.499 167.935 211.981C163.118 213.464 160.815 216.266 159.311 220.163C157.807 224.06 158.844 228.971 161.43 232.55C167.857 241.215 180.326 242.47 189.685 238.43C199.044 234.39 194.111 236.139 196.083 234.57C198.056 233 194.687 232.894 194.291 232.825C193.14 232.53 191.604 232.383 190.637 233.123L190.816 233.202Z" fill="black"/>
<path d="M98.3848 136.572C103.093 124.438 111.93 111.897 124.815 107.608C137.7 103.319 136.726 106.496 142.206 110.29C147.685 114.084 152.286 120.354 154.719 126.94C159.899 141.1 157.116 157.583 148.206 169.562C139.297 181.542 138.426 179.885 131.855 182.927C125.284 185.969 118.663 187.186 111.719 187.2C95.9585 187.358 79.8571 188.532 65.0781 194.212C50.2991 199.893 61.3121 195.734 59.4346 196.603C57.5572 197.472 59.5906 197.944 60.2162 198.22C61.2887 198.693 63.0931 198.958 64.2497 198.513C79.2192 191.432 95.6448 189.765 112.098 189.488C128.551 189.212 127.339 188.571 134.524 185.588C141.71 182.605 147.561 178.291 152.334 172.548C162.283 160.391 165.697 143.444 160.78 128.446C155.925 113.792 141.795 102.262 125.867 104.254C109.938 106.246 100.682 118.285 94.6383 130.785C88.5945 143.285 93.2684 133.893 92.5639 135.491C91.8594 137.089 97.7586 137.993 98.3737 136.355L98.3848 136.572Z" fill="black"/>
<path d="M97.3123 136.1C105.658 124.191 112.172 108.929 107.317 94.2752C102.461 79.6219 104.046 86.6828 101.354 83.5875C98.6622 80.4922 94.9535 78.009 91.1105 76.315C83.2456 72.8481 74.3403 72.9523 65.9093 74.6441C57.4783 76.3359 50.4825 79.6148 44.3688 84.7671C38.255 89.9193 34.1857 95.7608 31.1107 102.252C28.0356 108.744 26.4016 116.083 26.818 123.372C27.2343 130.66 27.7484 130.463 28.9259 133.845C30.1035 137.227 32.3647 141.299 34.5534 144.809C43.3305 159.282 53.1859 173.489 57.1799 190.095C61.174 206.702 58.0946 194.316 58.3341 196.437C58.5735 198.557 64.5009 199.155 64.0885 196.216C61.681 179.885 53.3899 165.519 44.9031 151.598C42.7535 148 40.4754 144.45 38.3259 140.852C36.1763 137.253 34.8532 134.443 33.9327 130.962C32.1138 124.434 32.2839 117.51 34.0908 110.989C37.8109 97.4648 47.9495 85.6032 61.097 80.4761C74.2444 75.3491 75.5792 76.6797 82.6292 77.8786C89.6792 79.0775 96.4097 83.4229 99.9436 90.1768C106.721 103.133 102.146 117.871 94.9683 129.553C87.7907 141.235 92.9839 132.602 92.0113 134.082C91.0386 135.562 92.6584 136.488 93.6807 136.833C94.7029 137.177 96.6248 137.176 97.48 135.962L97.3123 136.1Z" fill="black"/>
</svg>
